<svg width="100" height="100" viewBox="0 0 100 100" fill="none" xmlns="http://www.w3.org/2000/svg">
<path d="M100 50.0028C100 51.9949 96.862 53.7768 96.6312 55.7062C96.3967 57.678 99.0126 60.159 98.5565 62.0515C98.0875 63.9754 94.6161 64.9493 93.9292 66.7754C93.2422 68.6016 95.1859 71.669 94.2809 73.4011C93.376 75.1331 89.769 75.2457 88.6607 76.8652C87.5524 78.4848 88.7212 81.9138 87.4261 83.3839C86.1309 84.854 82.6082 84.0941 81.1464 85.4C79.6846 86.706 80.0161 90.3139 78.3986 91.4354C76.781 92.5569 73.5588 90.9669 71.824 91.8855C70.0892 92.8041 69.5635 96.3826 67.7298 97.0835C65.8961 97.7845 63.1501 95.4548 61.2413 95.9288C59.3618 96.3937 57.9824 99.7452 56.0241 99.9868C54.108 100.219 51.9775 97.2975 49.9991 97.2975C48.0207 97.2975 45.8902 100.219 43.9741 99.9868C42.0158 99.7507 40.6346 96.3992 38.7569 95.9288C36.8463 95.4566 34.082 97.7734 32.2666 97.0835C30.4512 96.3937 29.8851 92.7967 28.1723 91.8855C26.4595 90.9743 23.1988 92.5514 21.5978 91.4354C19.9967 90.3195 20.3155 86.7041 18.85 85.4C17.3845 84.0959 13.8673 84.8559 12.5721 83.3839C11.277 81.912 12.4512 78.4866 11.3374 76.8652C10.2237 75.2439 6.62955 75.1461 5.71727 73.4011C4.805 71.6561 6.76508 68.6219 6.06897 66.7754C5.37286 64.929 1.91062 63.9754 1.44166 62.0515C0.980028 60.159 3.60331 57.678 3.367 55.7062C3.13619 53.7768 0 51.9949 0 50.0028C0 48.0106 3.13802 46.2288 3.367 44.2994C3.60331 42.3275 0.985523 39.8447 1.44166 37.9522C1.91062 36.0283 5.38018 35.0544 6.06897 33.2283C6.75775 31.4021 4.81233 28.3346 5.71727 26.6026C6.62222 24.8705 10.231 24.758 11.3374 23.1366C12.4439 21.5153 11.277 18.0881 12.5721 16.6179C13.8673 15.1478 17.3881 15.9078 18.85 14.6018C20.3118 13.2959 19.9802 9.68791 21.5978 8.56641C23.2153 7.44492 26.4394 9.0349 28.1723 8.1163C29.9053 7.19771 30.4329 3.61925 32.2666 2.91647C34.1003 2.21369 36.8463 4.54523 38.7551 4.07118C40.6346 3.60635 42.0158 0.256648 43.9741 0.0131655C45.8902 -0.21925 48.0207 2.7025 49.9991 2.7025C51.9775 2.7025 54.1098 -0.217405 56.026 0.0131655C57.9842 0.251115 59.3636 3.60082 61.2431 4.07118C63.1538 4.54339 65.9181 2.2266 67.7316 2.91647C69.5452 3.60634 70.113 7.20324 71.8277 8.1163C73.5423 9.02936 76.7994 7.45045 78.4023 8.56641C80.0052 9.68238 79.6846 13.2977 81.1501 14.6018C82.6156 15.906 86.1327 15.146 87.4297 16.6179C88.7267 18.0899 87.5506 21.5153 88.6626 23.1366C89.7745 24.758 93.3705 24.8558 94.2827 26.6026C95.195 28.3494 93.2349 31.38 93.931 33.2283C94.6271 35.0765 98.0894 36.0283 98.5583 37.9522C99.02 39.8447 96.3967 42.3275 96.6331 44.2975C96.862 46.2214 100 48.0106 100 50.0028Z" fill="#4A70F4"/>
<path d="M22.8571 35L18.9051 23.8H21.6251L23.9611 31.24L26.1851 23.8H28.2011L30.4251 31.24L32.7611 23.8H35.4811L31.5291 35H29.4171L27.1931 27.96L24.9691 35H22.8571ZM42.9358 30.744C42.9358 31.064 42.9144 31.4213 42.8718 31.816H37.1758C37.1971 32.3173 37.3678 32.7067 37.6878 32.984C38.0078 33.2613 38.4398 33.4 38.9838 33.4C39.7304 33.4 40.2104 33.16 40.4238 32.68H42.8238C42.7064 33.4373 42.2904 34.056 41.5758 34.536C40.8718 35.0053 40.0078 35.24 38.9838 35.24C37.6718 35.24 36.6371 34.8773 35.8798 34.152C35.1224 33.4267 34.7438 32.424 34.7438 31.144C34.7438 29.8853 35.1224 28.8933 35.8798 28.168C36.6371 27.432 37.6451 27.064 38.9038 27.064C40.0984 27.064 41.0691 27.4053 41.8158 28.088C42.5624 28.7707 42.9358 29.656 42.9358 30.744ZM37.1758 30.296H40.5198C40.5091 29.784 40.3651 29.3893 40.0878 29.112C39.8104 28.8347 39.4104 28.696 38.8878 28.696C38.3651 28.696 37.9491 28.8453 37.6398 29.144C37.3411 29.432 37.1864 29.816 37.1758 30.296ZM49.2961 27.08C50.3521 27.08 51.2055 27.4533 51.8561 28.2C52.5175 28.9467 52.8481 29.928 52.8481 31.144C52.8481 32.3493 52.5121 33.3307 51.8401 34.088C51.1681 34.8347 50.2988 35.208 49.2321 35.208C48.6775 35.208 48.1815 35.0853 47.7441 34.84C47.3068 34.5947 46.9868 34.2853 46.7841 33.912V35H44.3361V23.784H46.7841V28.392C46.9868 28.008 47.3175 27.6933 47.7761 27.448C48.2348 27.2027 48.7415 27.08 49.2961 27.08ZM48.5281 33.176C49.0615 33.176 49.4988 32.9893 49.8401 32.616C50.1815 32.232 50.3521 31.7413 50.3521 31.144C50.3521 30.5467 50.1815 30.0613 49.8401 29.688C49.4988 29.3147 49.0615 29.128 48.5281 29.128C47.9735 29.128 47.5255 29.3147 47.1841 29.688C46.8428 30.0613 46.6721 30.5467 46.6721 31.144C46.6721 31.752 46.8428 32.2427 47.1841 32.616C47.5361 32.9893 47.9841 33.176 48.5281 33.176ZM57.4085 35.24C56.2992 35.24 55.4138 35 54.7525 34.52C54.0912 34.04 53.7605 33.4267 53.7605 32.68H56.1925C56.1925 32.9467 56.3098 33.1653 56.5445 33.336C56.7792 33.5067 57.0832 33.592 57.4565 33.592C57.7232 33.592 57.9365 33.528 58.0965 33.4C58.2672 33.272 58.3525 33.096 58.3525 32.872C58.3525 32.52 58.1658 32.3013 57.7925 32.216L55.9045 31.736C55.2752 31.576 54.7952 31.304 54.4645 30.92C54.1338 30.536 53.9685 30.0667 53.9685 29.512C53.9685 28.7867 54.2672 28.2 54.8645 27.752C55.4618 27.2933 56.2618 27.064 57.2645 27.064C58.3738 27.064 59.2218 27.2773 59.8085 27.704C60.4058 28.1307 60.7045 28.7173 60.7045 29.464H58.2885C58.2885 29.1973 58.1925 28.9893 58.0005 28.84C57.8192 28.6907 57.5632 28.616 57.2325 28.616C56.9658 28.616 56.7525 28.6747 56.5925 28.792C56.4325 28.9093 56.3525 29.064 56.3525 29.256C56.3525 29.5973 56.5712 29.8267 57.0085 29.944L58.8325 30.44C59.4405 30.6 59.9152 30.8667 60.2565 31.24C60.6085 31.6027 60.7845 32.0507 60.7845 32.584C60.7845 33.384 60.4805 34.0293 59.8725 34.52C59.2752 35 58.4538 35.24 57.4085 35.24ZM64.6249 26.168C64.3369 26.456 63.9742 26.6 63.5369 26.6C63.0995 26.6 62.7369 26.456 62.4489 26.168C62.1715 25.88 62.0329 25.528 62.0329 25.112C62.0329 24.6853 62.1715 24.328 62.4489 24.04C62.7369 23.752 63.0995 23.608 63.5369 23.608C63.9742 23.608 64.3369 23.7573 64.6249 24.056C64.9129 24.344 65.0569 24.696 65.0569 25.112C65.0569 25.528 64.9129 25.88 64.6249 26.168ZM62.3049 35V27.288H64.7529V35H62.3049ZM70.8216 33.096C71.163 33.096 71.4456 33.08 71.6696 33.048V35C71.2003 35.0853 70.6563 35.128 70.0376 35.128C69.7603 35.128 69.515 35.112 69.3016 35.08C69.0883 35.048 68.8483 34.9787 68.5816 34.872C68.315 34.7547 68.0963 34.6 67.9256 34.408C67.755 34.216 67.6056 33.9387 67.4776 33.576C67.3603 33.2133 67.3016 32.7867 67.3016 32.296V29.224H66.0856V27.288H67.3016V25H69.7496V27.288H71.4936V29.224H69.7496V31.784C69.7496 32.3067 69.8403 32.6587 70.0216 32.84C70.203 33.0107 70.4696 33.096 70.8216 33.096ZM80.6545 30.744C80.6545 31.064 80.6332 31.4213 80.5905 31.816H74.8945C74.9158 32.3173 75.0865 32.7067 75.4065 32.984C75.7265 33.2613 76.1585 33.4 76.7025 33.4C77.4492 33.4 77.9292 33.16 78.1425 32.68H80.5425C80.4252 33.4373 80.0092 34.056 79.2945 34.536C78.5905 35.0053 77.7265 35.24 76.7025 35.24C75.3905 35.24 74.3558 34.8773 73.5985 34.152C72.8412 33.4267 72.4625 32.424 72.4625 31.144C72.4625 29.8853 72.8412 28.8933 73.5985 28.168C74.3558 27.432 75.3638 27.064 76.6225 27.064C77.8172 27.064 78.7878 27.4053 79.5345 28.088C80.2812 28.7707 80.6545 29.656 80.6545 30.744ZM74.8945 30.296H78.2385C78.2278 29.784 78.0838 29.3893 77.8065 29.112C77.5292 28.8347 77.1292 28.696 76.6065 28.696C76.0838 28.696 75.6678 28.8453 75.3585 29.144C75.0598 29.432 74.9052 29.816 74.8945 30.296ZM37.1457 46.528C36.399 46.528 36.0257 46.8533 36.0257 47.504V48.288H37.8177V50.224H36.0257V56H33.5777V50.224H32.2017V48.288H33.5777V47.536C33.5777 46.9707 33.6684 46.4907 33.8497 46.096C34.031 45.6907 34.271 45.392 34.5697 45.2C34.8684 45.008 35.167 44.8693 35.4657 44.784C35.7644 44.6987 36.079 44.656 36.4097 44.656C36.975 44.656 37.4444 44.7147 37.8177 44.832V46.576C37.7644 46.576 37.6577 46.5707 37.4977 46.56C37.3484 46.5387 37.231 46.528 37.1457 46.528ZM39.0314 56V48.288H41.4794V49.904C41.6074 49.3493 41.8688 48.9227 42.2634 48.624C42.6688 48.3147 43.1168 48.16 43.6074 48.16C43.8634 48.16 44.0768 48.1813 44.2474 48.224V50.496C43.9594 50.464 43.7141 50.448 43.5114 50.448C42.1568 50.448 41.4794 51.3067 41.4794 53.024V56H39.0314ZM52.2998 55.088C51.5318 55.856 50.4971 56.24 49.1958 56.24C47.8945 56.24 46.8545 55.856 46.0758 55.088C45.2971 54.32 44.9078 53.3387 44.9078 52.144C44.9078 50.9493 45.2971 49.9733 46.0758 49.216C46.8545 48.448 47.8945 48.064 49.1958 48.064C50.4971 48.064 51.5318 48.448 52.2998 49.216C53.0785 49.9733 53.4678 50.9493 53.4678 52.144C53.4678 53.3387 53.0785 54.32 52.2998 55.088ZM49.1958 54.16C49.7611 54.16 50.2091 53.9733 50.5398 53.6C50.8705 53.2267 51.0358 52.7413 51.0358 52.144C51.0358 51.5467 50.8705 51.0613 50.5398 50.688C50.2091 50.3147 49.7611 50.128 49.1958 50.128C48.6198 50.128 48.1665 50.3147 47.8358 50.688C47.5158 51.0613 47.3558 51.5467 47.3558 52.144C47.3558 52.7413 47.5158 53.2267 47.8358 53.6C48.1665 53.9733 48.6198 54.16 49.1958 54.16ZM54.8752 56V48.288H57.3232V49.408C57.4939 49.0133 57.7712 48.6933 58.1552 48.448C58.5499 48.2027 59.0085 48.08 59.5312 48.08C60.7472 48.08 61.5525 48.5547 61.9472 49.504C62.1605 49.0773 62.4859 48.736 62.9232 48.48C63.3605 48.2133 63.8565 48.08 64.4112 48.08C66.2352 48.08 67.1472 49.1253 67.1472 51.216V56H64.6832V51.664C64.6832 50.6507 64.2992 50.144 63.5312 50.144C62.6672 50.144 62.2352 50.7733 62.2352 52.032V56H59.7712V51.648C59.7712 50.6453 59.3925 50.144 58.6352 50.144C58.2085 50.144 57.8832 50.288 57.6592 50.576C57.4352 50.8533 57.3232 51.3387 57.3232 52.032V56H54.8752ZM35.194 77.24C33.978 77.24 33.002 76.9467 32.266 76.36C31.53 75.7627 31.1247 74.9573 31.05 73.944H33.562C33.6047 74.328 33.7753 74.6267 34.074 74.84C34.3727 75.0533 34.746 75.16 35.194 75.16C35.7593 75.16 36.1967 74.9893 36.506 74.648C36.826 74.296 36.986 73.8267 36.986 73.24C36.986 72.6853 36.8367 72.2373 36.538 71.896C36.25 71.5547 35.85 71.384 35.338 71.384C34.474 71.384 33.8873 71.7413 33.578 72.456H31.306V66.12H38.89V68.12H33.626V70.44C34.1593 69.864 34.9327 69.576 35.946 69.576C37.0127 69.576 37.866 69.912 38.506 70.584C39.146 71.2453 39.466 72.1147 39.466 73.192C39.466 74.376 39.0767 75.3467 38.298 76.104C37.53 76.8613 36.4953 77.24 35.194 77.24ZM48.5905 75.784C47.8225 76.7547 46.6972 77.24 45.2145 77.24C43.7318 77.24 42.6012 76.7547 41.8225 75.784C41.0545 74.8133 40.6705 73.4053 40.6705 71.56C40.6705 69.7147 41.0545 68.3067 41.8225 67.336C42.6012 66.3653 43.7318 65.88 45.2145 65.88C46.6972 65.88 47.8225 66.3653 48.5905 67.336C49.3692 68.3067 49.7585 69.7147 49.7585 71.56C49.7585 73.4053 49.3692 74.8133 48.5905 75.784ZM45.2145 75.16C46.6012 75.16 47.2945 73.96 47.2945 71.56C47.2945 69.16 46.6012 67.96 45.2145 67.96C43.8278 67.96 43.1345 69.16 43.1345 71.56C43.1345 72.7867 43.3052 73.6933 43.6465 74.28C43.9878 74.8667 44.5105 75.16 45.2145 75.16ZM58.8874 75.784C58.1194 76.7547 56.994 77.24 55.5114 77.24C54.0287 77.24 52.898 76.7547 52.1194 75.784C51.3514 74.8133 50.9674 73.4053 50.9674 71.56C50.9674 69.7147 51.3514 68.3067 52.1194 67.336C52.898 66.3653 54.0287 65.88 55.5114 65.88C56.994 65.88 58.1194 66.3653 58.8874 67.336C59.666 68.3067 60.0554 69.7147 60.0554 71.56C60.0554 73.4053 59.666 74.8133 58.8874 75.784ZM55.5114 75.16C56.898 75.16 57.5914 73.96 57.5914 71.56C57.5914 69.16 56.898 67.96 55.5114 67.96C54.1247 67.96 53.4314 69.16 53.4314 71.56C53.4314 72.7867 53.602 73.6933 53.9434 74.28C54.2847 74.8667 54.8074 75.16 55.5114 75.16ZM69.3123 73.928C69.3123 74.8347 69.0136 75.592 68.4163 76.2C67.8296 76.7973 67.0189 77.1493 65.9843 77.256V78.6H64.5603V77.24C63.4189 77.112 62.5443 76.712 61.9363 76.04C61.3283 75.3573 61.0243 74.4613 61.0243 73.352H63.6163C63.6163 73.9493 63.7656 74.4187 64.0643 74.76C64.3736 75.1013 64.7949 75.272 65.3283 75.272C65.7869 75.272 66.1336 75.1707 66.3683 74.968C66.6136 74.7547 66.7363 74.4613 66.7363 74.088C66.7363 73.8 66.6456 73.5547 66.4643 73.352C66.2829 73.1387 65.9683 72.9573 65.5203 72.808L63.5523 72.2C62.8269 71.9653 62.2669 71.5867 61.8723 71.064C61.4883 70.5307 61.2963 69.88 61.2963 69.112C61.2963 68.2587 61.6003 67.544 62.2083 66.968C62.8269 66.3813 63.6109 66.0347 64.5603 65.928V64.52H65.9843V65.96C67.0189 66.0987 67.7976 66.4773 68.3203 67.096C68.8536 67.7147 69.1203 68.472 69.1203 69.368H66.5283C66.5283 68.856 66.4056 68.4667 66.1603 68.2C65.9149 67.9227 65.5683 67.784 65.1203 67.784C64.7363 67.784 64.4323 67.88 64.2083 68.072C63.9949 68.264 63.8883 68.5253 63.8883 68.856C63.8883 69.1867 63.9843 69.464 64.1763 69.688C64.3789 69.912 64.7309 70.1147 65.2323 70.296L67.2003 70.936C68.6083 71.4053 69.3123 72.4027 69.3123 73.928Z" fill="white"/>
</svg>
