<svg width="73" height="97" viewBox="0 0 73 97" fill="none" xmlns="http://www.w3.org/2000/svg">
<path d="M71.1605 4.92179C71.8215 8.72473 71.9796 12.5908 71.6308 16.4213C71.4561 18.8738 71.1521 21.5851 70.7382 24.4604C70.3122 27.5411 69.6714 30.5858 68.8203 33.5727C68.3562 35.179 67.786 36.7519 67.1133 38.281C66.4342 39.8771 65.6112 41.4073 64.6543 42.853C63.6911 44.3458 62.5521 45.7175 61.2608 46.9395C59.9744 48.1927 58.5203 49.2638 56.9385 50.1234L56.6728 50.2586C56.6522 50.1584 56.6492 50.0484 56.6336 49.9409C56.024 45.879 54.1071 42.1063 51.1714 39.1904C49.6666 37.7273 47.8822 36.5802 45.9267 35.819C43.8789 35.0202 41.6664 34.7542 39.5005 35.0462C38.3533 35.1657 37.235 35.4665 36.1877 35.9373C35.01 36.4562 33.9704 37.2369 33.1477 38.2201C32.3735 39.1949 31.817 40.3241 31.5147 41.5337C31.2125 42.7433 31.1712 44.0061 31.3936 45.2396C31.7976 47.474 32.9744 49.5074 34.7194 50.9861C36.3096 52.3493 38.1503 53.391 40.1361 54.0517C42.0833 54.7181 44.1183 55.0829 46.1692 55.1334C48.7289 55.1906 51.2739 54.8137 53.6949 54.0188C53.6587 54.5928 53.5841 55.1631 53.4716 55.7262C52.8323 59.0534 51.4555 62.1878 49.4408 64.9027C47.5796 67.4472 45.3382 69.6918 42.7926 71.5602C40.5783 73.2033 38.167 74.5688 35.6123 75.6265C33.4197 76.4754 31.152 77.1249 28.8367 77.5672C25.2223 78.2964 21.5331 78.6282 17.8353 78.5567C15.3548 78.5285 12.8775 78.3133 10.4247 77.9129C8.45813 77.5786 7.0445 77.269 5.95272 77.0022C5.00189 76.7865 4.38047 76.6187 3.895 76.5096L4.5848 76.2481C6.55138 75.5029 8.31711 74.796 9.7917 74.164C12.7333 72.8949 14.5558 71.956 14.4235 71.5975C14.2911 71.239 12.378 71.5773 9.31113 72.3955C7.77015 72.7995 5.96086 73.3262 3.95603 73.9486L3.19575 74.1845C2.8674 74.2824 2.54852 74.4084 2.24262 74.5611C2.04793 74.6623 1.86267 74.7803 1.68894 74.9136C1.46763 75.0828 1.27149 75.2821 1.10619 75.5059C0.765744 75.9666 0.583466 76.5253 0.585874 77.1007C0.634992 77.8335 0.822453 78.5524 1.13843 79.2197L1.74136 80.8217C5.2498 89.6486 8.61629 96.5774 9.2757 96.2632C9.93511 95.949 7.63684 88.5371 4.13339 79.7029L3.66066 78.5442C4.13758 78.786 4.62962 78.9965 5.13355 79.1742C6.62529 79.7348 8.15616 80.1824 9.713 80.5133C12.2702 81.0841 14.8718 81.4203 17.4847 81.5175C21.3945 81.6958 25.3057 81.4159 29.1376 80.6835C31.6613 80.2116 34.1322 79.5059 36.5179 78.5756C39.3479 77.4231 42.017 75.9207 44.4628 74.1036C47.3006 72.0223 49.7949 69.5163 51.8588 66.6729C54.1786 63.5243 55.752 59.8889 56.4633 56.0345C56.6729 54.9247 56.7687 53.7952 56.7492 52.6633C57.1102 52.484 57.4712 52.3047 57.8145 52.1027C59.5732 51.1137 61.1869 49.892 62.6123 48.4706C63.9998 47.0979 65.2197 45.567 66.2473 43.9088C67.2427 42.3361 68.0912 40.6747 68.7823 38.9452C69.4531 37.335 70.0154 35.6811 70.4656 33.9942C71.2749 30.9185 71.8542 27.7845 72.1988 24.6179C72.542 21.6737 72.7614 18.9417 72.857 16.4219C73.072 12.5082 72.7041 8.57664 71.7653 4.75459C71.5021 3.74439 71.1615 2.75477 70.7465 1.79446C70.4445 1.14961 70.2898 0.840891 70.2195 0.847781C70.1491 0.854671 70.6408 2.29585 71.1505 4.9367L71.1605 4.92179ZM53.5459 50.5939C53.595 50.8967 53.6191 51.2043 53.6431 51.5119C51.3092 52.3065 48.8422 52.6638 46.3659 52.5661C44.5578 52.4904 42.7682 52.1404 41.0592 51.5281C39.3767 50.9428 37.8226 50.0343 36.4861 48.8547C35.2101 47.7405 34.3588 46.2237 34.0791 44.5656C33.9321 43.7528 33.9584 42.9206 34.1565 42.1231C34.3546 41.3257 34.7199 40.5809 35.2287 39.9374C36.3835 38.7433 37.9495 38.0255 39.6218 37.9236C41.3426 37.7138 43.0946 37.9466 44.7108 38.5998C46.3101 39.2604 47.7633 40.2334 48.9832 41.4606C50.2154 42.6858 51.2397 44.1011 52.0154 45.6502C52.8033 47.1987 53.3242 48.8651 53.5559 50.579" fill="#F3ADFF"/>
</svg>
