<svg width="18" height="16" viewBox="0 0 18 16" fill="none" xmlns="http://www.w3.org/2000/svg">
<path fill-rule="evenodd" clip-rule="evenodd" d="M15.3332 14.1876C15.3096 14.4417 15.2105 14.6829 15.0485 14.8802C14.8866 15.0774 14.6693 15.2216 14.4247 15.2941C14.18 15.3667 13.9192 15.3643 13.6759 15.2873C13.4327 15.2102 13.2179 15.0621 13.0596 14.862C11.6673 13.7558 9.49602 12.1618 9.49602 12.1618C9.49602 12.1618 7.92484 14.9297 7.64384 15.2133C7.551 15.2913 7.44295 15.349 7.32654 15.3829C7.21012 15.4168 7.08795 15.426 6.96776 15.4101C6.84758 15.3941 6.73199 15.3532 6.62848 15.2901C6.52497 15.2269 6.43576 15.1429 6.36653 15.0434C6.35219 14.9998 6.33523 14.9571 6.31555 14.9156L7.19681 10.5064L13.4812 4.3332L4.91039 9.22397C4.91039 9.22397 1.04018 8.06672 0.465395 7.84064C0.31712 7.75965 0.194846 7.63832 0.112702 7.49068C0.0305593 7.34304 -0.00798206 7.17516 0.00137496 7.00646C0.010732 6.83777 0.0675921 6.67518 0.16556 6.53753C0.263527 6.39988 0.398571 6.29283 0.554894 6.22873C1.37237 5.81233 15.793 0.304567 16.2784 0.162786C16.7638 0.0210057 18.0411 -0.348138 17.9006 0.894679C17.7601 2.1375 15.4737 13.5042 15.3332 14.1876Z" fill="#2AA1DA"/>
</svg>
