<svg width="22" height="17" viewBox="0 0 22 17" fill="none" xmlns="http://www.w3.org/2000/svg">
<path fill-rule="evenodd" clip-rule="evenodd" d="M10.6302 5.28298C10.6302 5.28298 10.9965 0.109696 14.603 0.0648855C17.5388 0.026256 18.1012 1.35977 18.1012 1.35977C18.9875 1.08905 19.8072 0.635282 20.5071 0.0278215C20.4439 0.891571 20.0979 1.71046 19.5228 2.35795C20.0812 2.35416 20.6214 2.15827 21.0525 1.80321C20.9394 2.22024 20.7375 2.60789 20.4607 2.93965C20.1838 3.27142 19.8387 3.53949 19.4486 3.72545C19.6326 6.95998 18.7653 10.1672 16.9763 12.8683C14.3495 16.6818 9.57182 16.9676 6.95119 17C4.85389 16.876 2.81153 16.2808 0.975977 15.2587C0.975977 15.2587 4.95169 15.3066 6.73173 14.0071C5.32242 13.0434 4.00361 11.9537 2.79154 10.7514C3.27173 10.7914 3.75524 10.7426 4.2178 10.6076C2.94554 9.26174 1.85462 7.75527 0.972865 6.12659C1.46508 6.22456 1.96894 6.25057 2.46863 6.20383C2.46863 6.20383 0.15089 2.43984 1.24797 0C1.24797 0.00618072 5.16494 4.95386 10.6302 5.28298Z" fill="#353535"/>
</svg>
