<svg width="36" height="36" viewBox="0 0 36 36" fill="none" xmlns="http://www.w3.org/2000/svg">
<path fill-rule="evenodd" clip-rule="evenodd" d="M18.0168 27C16.3168 26.9957 14.6531 26.5078 13.2199 25.5934L9 27L10.4067 22.7789C9.34691 21.0877 8.87928 19.0922 9.07749 17.1062C9.2757 15.1202 10.1285 13.2565 11.5016 11.8081C12.8748 10.3597 14.6903 9.40876 16.6628 9.10492C18.6354 8.80108 20.6531 9.16152 22.3985 10.1296C24.1438 11.0977 25.5178 12.6184 26.3044 14.4527C27.0911 16.2869 27.2457 18.3307 26.744 20.2625C26.2423 22.1942 25.1127 23.9043 23.5329 25.124C21.9531 26.3436 20.0127 27.0036 18.0168 27V27ZM19.9765 19.3489C20.5763 19.5429 21.1864 19.7035 21.8039 19.8298C21.8689 19.8394 21.9312 19.8619 21.9872 19.8961C22.0433 19.9304 22.0919 19.9755 22.13 20.029C22.1682 20.0824 22.1952 20.143 22.2094 20.2071C22.2236 20.2712 22.2247 20.3375 22.2127 20.4021V20.7483C22.2186 20.8719 22.1957 20.9952 22.1456 21.1083C22.0955 21.2214 22.0196 21.3212 21.9241 21.3999C21.6278 21.7007 21.277 21.9423 20.8902 22.1117C20.3197 22.1795 19.7413 22.1291 19.1911 21.9637C18.6409 21.7982 18.1307 21.5211 17.6922 21.1498C17.1269 20.7706 16.5996 20.3379 16.1173 19.8575C15.6374 19.3728 15.2027 18.8451 14.8188 18.2813C14.4505 17.8426 14.1762 17.3329 14.0128 16.7838C13.8495 16.2348 13.8006 15.6581 13.8692 15.0894C14.0388 14.7048 14.2794 14.3556 14.5784 14.0602C14.6546 13.9628 14.7538 13.8858 14.8671 13.8363C14.9804 13.7867 15.1044 13.7662 15.2277 13.7765H15.5762C15.7077 13.7583 15.8412 13.793 15.9471 13.873C16.053 13.953 16.1228 14.0719 16.1413 14.2033C16.3216 14.915 16.4539 15.4296 16.6342 16.0067C16.7064 16.2471 16.6223 16.3048 16.4299 16.4491C16.3097 16.5417 16.2135 16.609 16.1173 16.6799C16.0616 16.7042 16.0115 16.7399 15.9704 16.7848C15.9294 16.8297 15.8981 16.8827 15.8789 16.9404C15.8596 16.9981 15.8526 17.0592 15.8585 17.1198C15.8643 17.1803 15.8829 17.2389 15.9129 17.2918C16.2199 17.8828 16.6129 18.4249 17.0791 18.9005C17.554 19.3675 18.0973 19.7595 18.6902 20.063C18.7432 20.0925 18.8017 20.1107 18.8622 20.1164C18.9226 20.122 18.9836 20.115 19.0412 20.096C19.0988 20.0769 19.152 20.046 19.1971 20.0054C19.2422 19.9648 19.2782 19.9152 19.3032 19.8598C19.3753 19.7624 19.4355 19.6711 19.5317 19.546C19.5467 19.5028 19.5702 19.4631 19.6009 19.4292C19.6317 19.3952 19.6689 19.3679 19.7104 19.3487C19.752 19.3295 19.7969 19.3189 19.8427 19.3175C19.8884 19.3161 19.9339 19.3239 19.9765 19.3405V19.3405V19.3489Z" fill="#65BC54"/>
<circle cx="18" cy="18" r="17.5" stroke="#4A70F4"/>
</svg>
