<svg width="61" height="61" viewBox="0 0 61 61" fill="none" xmlns="http://www.w3.org/2000/svg">
<path d="M58.8093 25.6667C61.0586 43.0584 48.1185 57.6389 31.9584 58.9302C16.7239 60.1475 4.26536 49.4717 2.20658 35.2297C0.14781 20.9876 8.25059 4.6348 26.4472 2.07515C44.0495 -0.400887 56.9094 10.9762 58.8093 25.6667Z" fill="#3D3D3D"/>
<path d="M2.32923 36.0034C2.57656 35.9661 2.81965 35.9143 3.05274 35.827C3.27971 35.7419 3.49763 35.6793 3.71938 35.6157C3.79658 35.5935 3.87429 35.5712 3.95296 35.5478C4.23565 35.4636 4.21752 35.2741 4.19547 35.0436C4.19077 34.9944 4.18589 34.9434 4.18371 34.8912C4.16447 34.4304 4.27397 33.9372 4.37582 33.4785C4.38973 33.4158 4.4035 33.3539 4.41677 33.2927C4.49845 32.9162 4.72121 32.8837 5.07721 32.8318L5.08452 32.8307C5.33685 32.7939 5.57666 32.7057 5.81469 32.6181C6.10147 32.5125 6.38568 32.4079 6.68608 32.3954C6.91105 32.386 7.12892 32.4144 7.34487 32.4425C7.55705 32.4702 7.76738 32.4976 7.98077 32.4887C8.13402 32.4823 8.22905 32.3379 8.31974 32.2001C8.36185 32.1362 8.40303 32.0736 8.44866 32.0269C8.67043 31.8002 8.91485 31.5245 8.90119 31.1973C8.8856 30.8238 8.88691 30.7103 9.22099 30.4796C9.35842 30.3848 9.49628 30.2886 9.6347 30.192C10.2572 29.7577 10.8911 29.3155 11.5472 28.9493C11.7796 28.8196 12.0094 28.743 12.2502 28.6627C12.31 28.6427 12.3706 28.6225 12.432 28.6012C12.5805 28.5497 12.7081 28.3927 12.8256 28.2482C12.8804 28.1809 12.9329 28.1163 12.9843 28.0663C13.116 27.9383 13.257 27.8211 13.3979 27.7039C13.5206 27.602 13.6432 27.5001 13.7597 27.391C13.8745 27.2837 13.908 27.2127 13.9513 27.1214C13.9748 27.0717 14.0012 27.016 14.0451 26.9451C14.1249 26.816 14.2484 26.7957 14.3768 26.7745C14.4244 26.7667 14.4727 26.7588 14.5197 26.7451C14.8894 26.6377 15.2772 26.518 15.6372 26.3832C15.8068 26.3196 15.9821 26.2613 16.1582 26.2027C16.5087 26.0861 16.8621 25.9686 17.1787 25.8069C17.4199 25.6838 17.7305 25.6095 17.9925 25.5519C18.1039 25.5274 18.2417 25.527 18.3821 25.5267C18.5819 25.5261 18.7872 25.5256 18.9295 25.4554C19.3243 25.2606 19.0981 24.6883 18.951 24.3158C18.9288 24.2597 18.9084 24.2081 18.8922 24.163C18.7304 23.7126 19.6234 23.362 20.1712 23.1468C20.3146 23.0906 20.4343 23.0435 20.5053 23.0065C20.7433 22.8821 20.9566 22.5607 21.1263 22.3051C21.1635 22.249 21.1986 22.196 21.2315 22.149C21.568 21.6673 21.8277 21.0749 21.9834 20.5125C22.1102 20.0548 22.2155 19.5973 22.3205 19.1415C22.5422 18.179 22.762 17.2244 23.1772 16.2941C23.3802 15.8395 23.7167 15.7314 24.0967 15.6094C24.2789 15.5509 24.471 15.4892 24.6632 15.3845C25.0845 15.155 25.4202 14.8396 25.7619 14.5186C25.8406 14.4447 25.9197 14.3704 26.0002 14.2968C26.4787 13.8593 27.0216 13.3417 27.2251 12.7183C27.2515 12.6375 27.2742 12.5618 27.2956 12.4905C27.4094 12.1116 27.4862 11.8559 27.8707 11.6267C28.1303 11.472 28.3695 11.3022 28.6062 11.1342C29.0983 10.785 29.5798 10.4433 30.212 10.2596C30.5935 10.1487 30.7463 9.90532 30.9364 9.60253C30.9884 9.51959 31.0433 9.43219 31.1064 9.34184C31.3752 8.95714 31.8685 8.64258 32.3505 8.62245C32.837 8.60214 33.7962 8.14421 33.7717 7.55581C33.7706 7.53069 33.7692 7.50086 33.7675 7.46716C33.7499 7.10822 33.7109 6.31095 33.9194 6.10827C34.0652 5.96659 34.4239 5.92171 34.6939 5.88794C34.7746 5.87784 34.8474 5.86874 34.9042 5.85833C35.2881 5.78796 35.6598 5.63393 36.0078 5.4642C36.0776 5.43016 36.1523 5.40854 36.2269 5.38695C36.3758 5.34387 36.5243 5.30092 36.6321 5.15969C36.8106 4.92602 36.7342 4.61216 36.6567 4.29375C36.5936 4.03442 36.5298 3.77208 36.6023 3.54759C36.6621 3.36238 37.0989 3.22176 37.4434 3.11085C37.6052 3.05874 37.7467 3.0132 37.8191 2.97266C37.996 2.87371 38.0848 2.70748 38.1386 2.52233C34.5668 1.68173 30.6417 1.48514 26.4472 2.07515C25.8582 2.158 25.2798 2.2553 24.712 2.36652C24.9736 2.71988 25.3724 3.31552 25.4389 3.74338C25.4688 3.93561 25.5171 4.13538 25.566 4.33751C25.7322 5.02461 25.9051 5.73892 25.3822 6.27632C25.1967 6.46705 24.7563 6.69922 24.4823 6.66195C24.1627 6.61847 24.0422 6.25393 23.9481 5.96935C23.9308 5.91678 23.9143 5.86694 23.8976 5.82236C23.8687 5.74503 23.8632 5.6348 23.8573 5.51957C23.848 5.33576 23.8381 5.13919 23.7318 5.04308C23.4864 4.82106 22.8278 4.91177 22.4116 4.96909C22.329 4.98047 22.256 4.99053 22.1976 4.99657C22.1752 4.99889 22.1529 5.00089 22.1309 5.00287C21.9387 5.02012 21.7685 5.03541 21.7539 5.2403C21.7275 5.61255 21.5674 5.97629 21.4114 6.31106C21.2083 6.74702 21.0424 7.07278 20.7245 7.41257C20.6001 7.54563 20.4521 7.67308 20.304 7.80061C20.1141 7.96414 19.924 8.12782 19.7832 8.30358C19.6474 8.47326 19.343 8.63809 19.1366 8.74991L19.0909 8.77472C18.9901 8.82961 18.8852 8.79399 18.7797 8.75821C18.7286 8.74083 18.6773 8.72342 18.6263 8.71631C17.7554 8.59499 16.8794 9.22209 16.1163 9.76844C15.8899 9.93049 15.6735 10.0854 15.47 10.2116C15.2692 10.3362 15.0826 10.4794 14.8963 10.6222C14.7066 10.7677 14.5172 10.9129 14.3137 11.0379C14.2312 11.0886 14.1892 11.1657 14.1456 11.2458C14.1143 11.3033 14.0822 11.3622 14.0338 11.414C13.8449 11.616 13.6353 11.7757 13.4237 11.937C13.3006 12.0309 13.1768 12.1253 13.056 12.2288C12.7507 12.4902 12.5162 11.8677 12.5083 11.6784C12.4905 11.2512 12.5185 10.9476 12.7236 10.5515C12.7388 10.5222 12.7843 10.4615 12.8418 10.3847C13.0446 10.114 13.397 9.64374 13.0981 9.64731C12.7371 9.65162 12.3036 9.70124 12.0241 9.95421C11.8791 10.0855 11.8352 10.286 11.7923 10.482C11.7718 10.5761 11.7514 10.6692 11.7202 10.7531C11.648 10.9474 11.5387 11.1031 11.4257 11.2641C11.3823 11.326 11.3383 11.3887 11.2956 11.4546C11.0607 11.818 10.9003 11.8393 10.6131 11.8775C10.541 11.887 10.4609 11.8977 10.3697 11.9151C10.0944 11.9675 9.84249 12.0833 9.59217 12.1984C9.34681 12.3112 9.10293 12.4233 8.83991 12.4744C8.62021 12.5171 8.39417 12.6592 8.19586 12.7839C8.16225 12.8051 8.12943 12.8257 8.09757 12.8453C7.89233 12.9713 7.68524 13.083 7.47561 13.1884C2.87596 19.5526 1.11627 27.6871 2.20658 35.2297C2.24404 35.4888 2.28494 35.7467 2.32923 36.0034Z" fill="black"/>
<path d="M25.3981 58.7157C17.9717 57.6092 11.6066 53.6056 7.38292 47.8847C7.64083 47.8053 7.89867 47.7199 8.1589 47.6279C8.43349 47.5308 8.47841 47.3235 8.53142 47.0788C8.55335 46.9776 8.57667 46.8699 8.61822 46.7611C8.6938 46.563 8.72913 46.3563 8.76351 46.1551C8.83571 45.7327 8.9037 45.3348 9.3314 45.0934C10.2019 44.6021 11.1846 44.126 12.1427 43.8131C12.1785 43.8014 12.2131 43.7899 12.2466 43.7788C12.6832 43.6336 12.9267 43.5526 13.2505 43.9184C13.3452 44.0253 13.4201 44.1394 13.4939 44.2517C13.6301 44.459 13.7624 44.6603 14.0076 44.7999C14.1718 44.8933 14.4161 44.8072 14.5822 44.7486L14.613 44.7378C15.2908 44.5014 15.9651 44.2563 16.6395 44.0103C17.1302 43.8313 17.6128 43.6207 18.0955 43.4101L18.096 43.4099C18.4727 43.2455 18.8496 43.081 19.2302 42.9317C19.4912 42.8292 19.7584 42.755 20.0251 42.6809C20.2874 42.6081 20.5492 42.5353 20.8043 42.436C20.9799 42.3676 21.1625 42.3289 21.3453 42.2901C21.5349 42.2498 21.7248 42.2095 21.9076 42.1361C22.3605 41.9541 22.7868 41.7498 23.1874 41.4725C23.3341 41.3709 23.4714 41.2206 23.5978 41.0822C23.627 41.0503 23.6556 41.019 23.6835 40.9891C23.9271 40.7287 24.1941 40.6666 24.5349 40.5873C24.5666 40.5799 24.5989 40.5724 24.6318 40.5646C24.7491 40.5367 24.8661 40.5103 24.9829 40.4838C25.4872 40.3697 25.9854 40.257 26.4629 40.0418C26.7736 39.9018 26.9334 39.7091 27.1163 39.4888C27.1691 39.425 27.2242 39.3587 27.2851 39.2909C27.4191 39.1419 27.474 38.8785 27.5216 38.65C27.5388 38.5675 27.555 38.4895 27.5737 38.4231C27.6897 38.0107 27.7998 37.5954 27.8755 37.1738C27.8933 37.0742 27.9016 36.9686 27.9098 36.8621C27.9241 36.679 27.9386 36.4929 28.0026 36.3291C28.6005 34.7992 30.1966 33.5316 31.481 32.5764C31.7817 32.3527 31.829 32.1554 31.8991 31.8625C31.9186 31.7812 31.9398 31.6924 31.9687 31.5937C32.0914 31.1751 32.3556 30.917 32.6556 30.6239C32.6902 30.5901 32.7255 30.5557 32.7609 30.5206C33.2466 30.0398 33.8295 29.7191 34.4252 29.3947C34.6973 29.2465 34.7789 29.0457 34.8697 28.8223C34.9116 28.7193 34.9555 28.6114 35.0208 28.5017C35.6732 27.4065 36.8817 27.2916 38.0704 27.1786C38.6664 27.1219 39.2575 27.0657 39.771 26.8866C40.0987 26.7723 40.3081 25.7716 40.3997 25.3341C40.4114 25.278 40.4212 25.2312 40.4291 25.1966C40.5912 24.4851 41.2953 24.3266 41.9632 24.1764C42.0942 24.1469 42.2241 24.1177 42.348 24.0847C42.8255 23.9575 43.3028 23.8667 43.7822 23.7754C44.0286 23.7285 44.2756 23.6815 44.5233 23.6294C44.5709 23.6194 44.6496 23.6122 44.742 23.6037C45.0167 23.5785 45.4119 23.5423 45.4668 23.3894C45.5318 23.2084 45.6222 23.0377 45.713 22.8665C45.8104 22.6826 45.9082 22.498 45.9751 22.2994L45.9848 22.2708C46.081 21.9845 46.1915 21.6559 46.4358 21.4653C46.5598 21.3686 46.8541 21.3486 47.1003 21.3319C47.2172 21.324 47.3232 21.3168 47.395 21.3024C47.7364 21.2343 48.0736 21.1449 48.4108 21.0555C48.6773 20.9848 48.9439 20.9141 49.2125 20.8539C49.467 20.7969 49.7218 20.741 49.9765 20.685L49.9781 20.6847C50.1725 20.642 50.3674 20.5992 50.5617 20.556C50.8122 20.5004 50.7779 20.6395 50.7358 20.8101C50.7252 20.8533 50.7141 20.8985 50.7069 20.943C50.7034 20.9649 50.6987 20.9917 50.6933 21.0223C50.6401 21.3254 50.521 22.004 50.8469 22.0019C51.1865 21.9996 51.5332 21.9616 51.8806 21.9236C52.1646 21.8924 52.4492 21.8613 52.7309 21.8495C53.024 21.8373 53.5707 22.1487 53.651 22.4458C53.6843 22.5689 53.6372 22.6994 53.5949 22.8168C53.5229 23.0167 53.4647 23.1783 53.8407 23.1995C53.925 23.2042 54.0099 23.2092 54.0952 23.2142L54.0978 23.2143C54.7156 23.2503 55.3566 23.2877 55.9669 23.2622C56.2624 23.2499 56.299 23.1812 56.4319 22.9316C56.4641 22.8713 56.5004 22.8062 56.5382 22.7385C56.6567 22.5261 56.7899 22.2875 56.8547 22.0868C56.8684 22.0444 56.8702 22.0105 56.8716 21.9836C56.8748 21.9222 56.8761 21.8976 57.0131 21.8918C57.122 21.8873 57.2309 21.8833 57.3399 21.8794C57.558 21.8714 57.7763 21.8635 57.9941 21.8509C58.0131 21.8498 58.0318 21.8484 58.0504 21.8467C58.3865 23.0891 58.6409 24.3649 58.8093 25.6667C60.4949 38.6996 53.6506 50.1539 43.3135 55.6201C42.9375 55.5482 42.4469 55.5838 42.2007 55.6017L42.1999 55.6017L42.1393 55.6061C42.1274 55.6069 42.1165 55.6076 42.1067 55.6082C41.4942 55.6442 40.871 55.7692 40.261 55.8917C40.1062 55.9227 39.9518 55.9537 39.799 55.983C39.5305 56.0343 39.2419 56.1281 38.9452 56.2246C38.3202 56.4278 37.6589 56.6428 37.0723 56.4981C36.9998 56.4802 36.8012 56.4802 36.5519 56.4803C35.9044 56.4805 34.9147 56.4808 34.9016 56.1669C34.8962 56.0374 34.987 55.7721 35.0878 55.4772C35.2834 54.9053 35.517 54.2223 35.1611 54.2029C34.4816 54.1659 33.8246 54.2708 33.165 54.3762C32.941 54.412 32.7166 54.4478 32.4911 54.4782L32.3003 54.5037C31.5421 54.6047 30.7434 54.7111 30.0201 54.9335C29.5818 55.0682 29.6456 56.1771 29.6757 56.7012C29.6792 56.7609 29.6822 56.8135 29.684 56.8557C29.7024 57.2967 29.1251 57.0739 28.8273 56.959L28.784 56.9424C28.5931 56.8695 28.3702 56.8526 28.1682 56.8534C28.0852 56.8537 28.0408 56.8107 27.9929 56.7644C27.9405 56.7137 27.884 56.6591 27.7685 56.6531C27.42 56.6351 27.0444 56.9559 26.8118 57.1762C26.6981 57.2839 26.5811 57.3913 26.4635 57.4994C26.1859 57.7544 25.9043 58.013 25.6547 58.2851C25.524 58.4276 25.4491 58.5708 25.3981 58.7157Z" fill="black"/>
<path d="M8.0297 43.318C7.9518 43.3578 7.8787 43.3952 7.78068 43.4826C7.67378 43.5779 7.25319 43.4483 7.16208 43.3986C6.88412 43.247 6.71608 42.9588 6.54922 42.6726C6.48005 42.554 6.41108 42.4357 6.33457 42.3276C6.14791 42.0639 5.89804 41.8225 5.65262 41.5854C5.57677 41.5121 5.50136 41.4393 5.42836 41.3663C5.17874 41.1167 5.23524 40.5309 5.47441 40.2752C5.54366 40.2011 5.82895 40.216 6.01536 40.2257C6.07625 40.2289 6.1266 40.2316 6.15541 40.2303C6.39765 40.2202 6.59506 40.3135 6.79747 40.4092C6.90974 40.4623 7.02355 40.5161 7.1474 40.5534C7.32694 40.6074 7.39497 40.7073 7.47069 40.8185C7.51452 40.8829 7.56094 40.951 7.63307 41.0163C7.71847 41.0935 7.82553 41.1457 7.93125 41.1971C8.01256 41.2367 8.09307 41.2759 8.16231 41.3259C8.23933 41.3814 8.23041 41.562 8.22343 41.7033C8.22075 41.7576 8.21835 41.806 8.22122 41.8393C8.23008 41.9422 8.26967 42.0341 8.30892 42.1253C8.35016 42.2211 8.39102 42.316 8.39544 42.4217C8.39771 42.4761 8.40381 42.5329 8.40997 42.5903C8.43336 42.8081 8.4576 43.0339 8.27651 43.1637C8.17537 43.2435 8.10055 43.2818 8.0297 43.318Z" fill="black"/>
<path d="M11.8664 41.3842C11.8106 41.7769 11.2472 41.7924 10.9006 41.802L10.8997 41.802C10.851 41.8033 10.8062 41.8046 10.7681 41.8067C10.2127 41.4532 9.72731 40.9963 9.74142 40.4533C9.75606 39.8896 10.2849 39.1735 10.8861 39.1484C10.9107 39.1474 10.9417 39.1453 10.9774 39.1429C11.2295 39.1262 11.7127 39.0942 11.7878 39.3032C11.8946 39.6004 11.8995 39.9215 11.9044 40.2353L11.9044 40.236C11.9049 40.2716 11.9055 40.3071 11.9061 40.3424C11.9123 40.6583 11.9106 41.0726 11.8664 41.3842Z" fill="black"/>
<path d="M32.9069 31.0869C32.5085 27.6703 34.7501 24.8592 38.258 24.4875C42.0774 24.0828 44.9445 25.9925 45.3757 29.5745C45.7857 32.9805 43.8516 35.9497 40.0455 36.6745C36.2395 37.3993 33.2832 34.3135 32.9069 31.0869Z" fill="#1BBBFF"/>
<path d="M16.6738 31.0257C16.591 29.041 18.1328 27.3649 20.1175 27.282L31.141 26.8218L31.4411 34.0092L20.4176 34.4694C18.4328 34.5523 16.7567 33.0105 16.6738 31.0257Z" fill="#D459FF"/>
<path d="M17.1882 43.347C17.0462 39.9446 19.7358 37.0693 23.1956 36.9248L31.5482 36.5761L32.045 42.2125C32.2411 46.9103 28.3332 50.0748 24.0031 50.0053C19.555 49.9338 17.3303 46.7494 17.1882 43.347Z" fill="#0CCE86"/>
<path d="M15.3392 19.4048C14.9046 15.9405 17.3624 12.783 20.829 12.3523L29.4615 11.2798L31.0354 23.8251L22.4029 24.8976C18.9363 25.3283 15.7738 22.8691 15.3392 19.4048Z" fill="#F14E1E"/>
<path d="M29.5038 12.2925L37.1437 11.3433C40.0621 10.9807 42.7244 13.051 43.0903 15.9674C43.4562 18.8839 41.3871 21.542 38.4687 21.9046L30.8288 22.8538L29.5038 12.2925Z" stroke="#F14E1E" stroke-width="2"/>
</svg>
