<svg width="136" height="136" viewBox="0 0 136 136" fill="none" xmlns="http://www.w3.org/2000/svg">
<path d="M136 68.0038C136 70.7131 131.732 73.1364 131.418 75.7604C131.1 78.4421 134.657 81.8162 134.037 84.39C133.399 87.0065 128.678 88.3311 127.744 90.8146C126.809 93.2981 129.453 97.4699 128.222 99.8255C126.991 102.181 122.086 102.334 120.579 104.537C119.071 106.739 120.661 111.403 118.899 113.402C117.138 115.402 112.347 114.368 110.359 116.144C108.371 117.92 108.822 122.827 106.622 124.352C104.422 125.877 100.04 123.715 97.6807 124.964C95.3214 126.214 94.6063 131.08 92.1125 132.034C89.6186 132.987 85.8841 129.818 83.2882 130.463C80.732 131.095 78.8561 135.653 76.1928 135.982C73.5869 136.298 70.6894 132.325 67.9988 132.325C65.3081 132.325 62.4107 136.298 59.8047 135.982C57.1415 135.661 55.263 131.103 52.7094 130.463C50.1109 129.821 46.3515 132.972 43.8826 132.034C41.4137 131.095 40.6438 126.204 38.3144 124.964C35.985 123.725 31.5504 125.87 29.373 124.352C27.1955 122.834 27.629 117.918 25.636 116.144C23.6429 114.37 18.8595 115.404 17.0981 113.402C15.3367 111.4 16.9337 106.742 15.4189 104.537C13.9042 102.332 9.01618 102.199 7.77549 99.8255C6.5348 97.4523 9.20051 93.3257 8.2538 90.8146C7.30709 88.3035 2.59844 87.0065 1.96066 84.39C1.33284 81.8162 4.90051 78.4421 4.57912 75.7604C4.26521 73.1364 0 70.7131 0 68.0038C0 65.2944 4.26771 62.8712 4.57912 60.2472C4.90051 57.5655 1.34031 54.1889 1.96066 51.615C2.59844 48.9985 7.31705 47.674 8.2538 45.1905C9.19054 42.7069 6.54477 38.5351 7.77549 36.1795C9.00622 33.8239 13.9142 33.6709 15.4189 31.4658C16.9237 29.2607 15.3367 24.5998 17.0981 22.6004C18.8595 20.601 23.6479 21.6346 25.636 19.8585C27.6241 18.0824 27.1731 13.1756 29.373 11.6503C31.5728 10.1251 35.9576 12.2875 38.3144 11.0382C40.6712 9.78889 41.3887 4.92218 43.8826 3.9664C46.3764 3.01062 50.1109 6.18152 52.7069 5.53681C55.263 4.90464 57.1415 0.349042 59.8047 0.017905C62.4107 -0.29818 65.3081 3.6754 67.9988 3.6754C70.6894 3.6754 73.5894 -0.295671 76.1953 0.017905C78.8586 0.341516 80.7345 4.89711 83.2907 5.53681C85.8891 6.17901 89.6486 3.02818 92.115 3.9664C94.5814 4.90462 95.3537 9.79641 97.6856 11.0382C100.018 12.2799 104.447 10.1326 106.627 11.6503C108.807 13.168 108.371 18.0849 110.364 19.8585C112.357 21.6321 117.141 20.5985 118.904 22.6004C120.668 24.6023 119.069 29.2607 120.581 31.4658C122.093 33.6709 126.984 33.8038 128.225 36.1795C129.465 38.5551 126.799 42.6768 127.746 45.1905C128.693 47.7041 133.402 48.9985 134.039 51.615C134.667 54.1889 131.1 57.5655 131.421 60.2446C131.732 62.8611 136 65.2944 136 68.0038Z" fill="#4A70F4"/>
<path d="M34.0714 51L29.1314 37H32.5314L35.4514 46.3L38.2314 37H40.7514L43.5314 46.3L46.4514 37H49.8514L44.9114 51H42.2714L39.4914 42.2L36.7114 51H34.0714ZM59.1697 45.68C59.1697 46.08 59.143 46.5267 59.0897 47.02H51.9697C51.9964 47.6467 52.2097 48.1333 52.6097 48.48C53.0097 48.8267 53.5497 49 54.2297 49C55.163 49 55.763 48.7 56.0297 48.1H59.0297C58.883 49.0467 58.363 49.82 57.4697 50.42C56.5897 51.0067 55.5097 51.3 54.2297 51.3C52.5897 51.3 51.2964 50.8467 50.3497 49.94C49.403 49.0333 48.9297 47.78 48.9297 46.18C48.9297 44.6067 49.403 43.3667 50.3497 42.46C51.2964 41.54 52.5564 41.08 54.1297 41.08C55.623 41.08 56.8364 41.5067 57.7697 42.36C58.703 43.2133 59.1697 44.32 59.1697 45.68ZM51.9697 45.12H56.1497C56.1364 44.48 55.9564 43.9867 55.6097 43.64C55.263 43.2933 54.763 43.12 54.1097 43.12C53.4564 43.12 52.9364 43.3067 52.5497 43.68C52.1764 44.04 51.983 44.52 51.9697 45.12ZM67.1202 41.1C68.4402 41.1 69.5068 41.5667 70.3202 42.5C71.1468 43.4333 71.5602 44.66 71.5602 46.18C71.5602 47.6867 71.1402 48.9133 70.3002 49.86C69.4602 50.7933 68.3735 51.26 67.0402 51.26C66.3468 51.26 65.7268 51.1067 65.1802 50.8C64.6335 50.4933 64.2335 50.1067 63.9802 49.64V51H60.9202V36.98H63.9802V42.74C64.2335 42.26 64.6468 41.8667 65.2202 41.56C65.7935 41.2533 66.4268 41.1 67.1202 41.1ZM66.1602 48.72C66.8268 48.72 67.3735 48.4867 67.8002 48.02C68.2268 47.54 68.4402 46.9267 68.4402 46.18C68.4402 45.4333 68.2268 44.8267 67.8002 44.36C67.3735 43.8933 66.8268 43.66 66.1602 43.66C65.4668 43.66 64.9068 43.8933 64.4802 44.36C64.0535 44.8267 63.8402 45.4333 63.8402 46.18C63.8402 46.94 64.0535 47.5533 64.4802 48.02C64.9202 48.4867 65.4802 48.72 66.1602 48.72ZM77.2606 51.3C75.874 51.3 74.7673 51 73.9406 50.4C73.114 49.8 72.7006 49.0333 72.7006 48.1H75.7406C75.7406 48.4333 75.8873 48.7067 76.1806 48.92C76.474 49.1333 76.854 49.24 77.3206 49.24C77.654 49.24 77.9206 49.16 78.1206 49C78.334 48.84 78.4406 48.62 78.4406 48.34C78.4406 47.9 78.2073 47.6267 77.7406 47.52L75.3806 46.92C74.594 46.72 73.994 46.38 73.5806 45.9C73.1673 45.42 72.9606 44.8333 72.9606 44.14C72.9606 43.2333 73.334 42.5 74.0806 41.94C74.8273 41.3667 75.8273 41.08 77.0806 41.08C78.4673 41.08 79.5273 41.3467 80.2606 41.88C81.0073 42.4133 81.3806 43.1467 81.3806 44.08H78.3606C78.3606 43.7467 78.2406 43.4867 78.0006 43.3C77.774 43.1133 77.454 43.02 77.0406 43.02C76.7073 43.02 76.4406 43.0933 76.2406 43.24C76.0406 43.3867 75.9406 43.58 75.9406 43.82C75.9406 44.2467 76.214 44.5333 76.7606 44.68L79.0406 45.3C79.8006 45.5 80.394 45.8333 80.8206 46.3C81.2606 46.7533 81.4806 47.3133 81.4806 47.98C81.4806 48.98 81.1006 49.7867 80.3406 50.4C79.594 51 78.5673 51.3 77.2606 51.3ZM86.2811 39.96C85.9211 40.32 85.4678 40.5 84.9211 40.5C84.3744 40.5 83.9211 40.32 83.5611 39.96C83.2144 39.6 83.0411 39.16 83.0411 38.64C83.0411 38.1067 83.2144 37.66 83.5611 37.3C83.9211 36.94 84.3744 36.76 84.9211 36.76C85.4678 36.76 85.9211 36.9467 86.2811 37.32C86.6411 37.68 86.8211 38.12 86.8211 38.64C86.8211 39.16 86.6411 39.6 86.2811 39.96ZM83.3811 51V41.36H86.4411V51H83.3811ZM94.027 48.62C94.4537 48.62 94.807 48.6 95.087 48.56V51C94.5004 51.1067 93.8204 51.16 93.047 51.16C92.7004 51.16 92.3937 51.14 92.127 51.1C91.8604 51.06 91.5604 50.9733 91.227 50.84C90.8937 50.6933 90.6204 50.5 90.407 50.26C90.1937 50.02 90.007 49.6733 89.847 49.22C89.7004 48.7667 89.627 48.2333 89.627 47.62V43.78H88.107V41.36H89.627V38.5H92.687V41.36H94.867V43.78H92.687V46.98C92.687 47.6333 92.8004 48.0733 93.027 48.3C93.2537 48.5133 93.587 48.62 94.027 48.62ZM106.318 45.68C106.318 46.08 106.291 46.5267 106.238 47.02H99.1181C99.1448 47.6467 99.3581 48.1333 99.7581 48.48C100.158 48.8267 100.698 49 101.378 49C102.311 49 102.911 48.7 103.178 48.1H106.178C106.031 49.0467 105.511 49.82 104.618 50.42C103.738 51.0067 102.658 51.3 101.378 51.3C99.7381 51.3 98.4448 50.8467 97.4981 49.94C96.5515 49.0333 96.0781 47.78 96.0781 46.18C96.0781 44.6067 96.5515 43.3667 97.4981 42.46C98.4448 41.54 99.7048 41.08 101.278 41.08C102.771 41.08 103.985 41.5067 104.918 42.36C105.851 43.2133 106.318 44.32 106.318 45.68ZM99.1181 45.12H103.298C103.285 44.48 103.105 43.9867 102.758 43.64C102.411 43.2933 101.911 43.12 101.258 43.12C100.605 43.12 100.085 43.3067 99.6981 43.68C99.3248 44.04 99.1315 44.52 99.1181 45.12ZM51.9321 65.16C50.9988 65.16 50.5321 65.5667 50.5321 66.38V67.36H52.7721V69.78H50.5321V77H47.4721V69.78H45.7521V67.36H47.4721V66.42C47.4721 65.7133 47.5854 65.1133 47.8121 64.62C48.0388 64.1133 48.3388 63.74 48.7121 63.5C49.0854 63.26 49.4588 63.0867 49.8321 62.98C50.2054 62.8733 50.5988 62.82 51.0121 62.82C51.7188 62.82 52.3054 62.8933 52.7721 63.04V65.22C52.7054 65.22 52.5721 65.2133 52.3721 65.2C52.1854 65.1733 52.0388 65.16 51.9321 65.16ZM54.2893 77V67.36H57.3493V69.38C57.5093 68.6867 57.836 68.1533 58.3293 67.78C58.836 67.3933 59.396 67.2 60.0093 67.2C60.3293 67.2 60.596 67.2267 60.8093 67.28V70.12C60.4493 70.08 60.1426 70.06 59.8893 70.06C58.196 70.06 57.3493 71.1333 57.3493 73.28V77H54.2893ZM70.8748 75.86C69.9148 76.82 68.6214 77.3 66.9948 77.3C65.3681 77.3 64.0681 76.82 63.0948 75.86C62.1214 74.9 61.6348 73.6733 61.6348 72.18C61.6348 70.6867 62.1214 69.4667 63.0948 68.52C64.0681 67.56 65.3681 67.08 66.9948 67.08C68.6214 67.08 69.9148 67.56 70.8748 68.52C71.8481 69.4667 72.3348 70.6867 72.3348 72.18C72.3348 73.6733 71.8481 74.9 70.8748 75.86ZM66.9948 74.7C67.7014 74.7 68.2614 74.4667 68.6748 74C69.0881 73.5333 69.2948 72.9267 69.2948 72.18C69.2948 71.4333 69.0881 70.8267 68.6748 70.36C68.2614 69.8933 67.7014 69.66 66.9948 69.66C66.2748 69.66 65.7081 69.8933 65.2948 70.36C64.8948 70.8267 64.6948 71.4333 64.6948 72.18C64.6948 72.9267 64.8948 73.5333 65.2948 74C65.7081 74.4667 66.2748 74.7 66.9948 74.7ZM74.094 77V67.36H77.154V68.76C77.3673 68.2667 77.714 67.8667 78.194 67.56C78.6873 67.2533 79.2607 67.1 79.914 67.1C81.434 67.1 82.4407 67.6933 82.934 68.88C83.2007 68.3467 83.6073 67.92 84.154 67.6C84.7007 67.2667 85.3207 67.1 86.014 67.1C88.294 67.1 89.434 68.4067 89.434 71.02V77H86.354V71.58C86.354 70.3133 85.874 69.68 84.914 69.68C83.834 69.68 83.294 70.4667 83.294 72.04V77H80.214V71.56C80.214 70.3067 79.7407 69.68 78.794 69.68C78.2607 69.68 77.854 69.86 77.574 70.22C77.294 70.5667 77.154 71.1733 77.154 72.04V77H74.094ZM49.4925 103.3C47.9725 103.3 46.7525 102.933 45.8325 102.2C44.9125 101.453 44.4058 100.447 44.3125 99.18H47.4525C47.5058 99.66 47.7192 100.033 48.0925 100.3C48.4658 100.567 48.9325 100.7 49.4925 100.7C50.1992 100.7 50.7458 100.487 51.1325 100.06C51.5325 99.62 51.7325 99.0333 51.7325 98.3C51.7325 97.6067 51.5458 97.0467 51.1725 96.62C50.8125 96.1933 50.3125 95.98 49.6725 95.98C48.5925 95.98 47.8592 96.4267 47.4725 97.32H44.6325V89.4H54.1125V91.9H47.5325V94.8C48.1992 94.08 49.1658 93.72 50.4325 93.72C51.7658 93.72 52.8325 94.14 53.6325 94.98C54.4325 95.8067 54.8325 96.8933 54.8325 98.24C54.8325 99.72 54.3458 100.933 53.3725 101.88C52.4125 102.827 51.1192 103.3 49.4925 103.3ZM66.2381 101.48C65.2781 102.693 63.8715 103.3 62.0181 103.3C60.1648 103.3 58.7515 102.693 57.7781 101.48C56.8181 100.267 56.3381 98.5067 56.3381 96.2C56.3381 93.8933 56.8181 92.1333 57.7781 90.92C58.7515 89.7067 60.1648 89.1 62.0181 89.1C63.8715 89.1 65.2781 89.7067 66.2381 90.92C67.2115 92.1333 67.6981 93.8933 67.6981 96.2C67.6981 98.5067 67.2115 100.267 66.2381 101.48ZM62.0181 100.7C63.7515 100.7 64.6181 99.2 64.6181 96.2C64.6181 93.2 63.7515 91.7 62.0181 91.7C60.2848 91.7 59.4181 93.2 59.4181 96.2C59.4181 97.7333 59.6315 98.8667 60.0581 99.6C60.4848 100.333 61.1381 100.7 62.0181 100.7ZM79.1092 101.48C78.1492 102.693 76.7426 103.3 74.8892 103.3C73.0359 103.3 71.6226 102.693 70.6492 101.48C69.6892 100.267 69.2092 98.5067 69.2092 96.2C69.2092 93.8933 69.6892 92.1333 70.6492 90.92C71.6226 89.7067 73.0359 89.1 74.8892 89.1C76.7426 89.1 78.1492 89.7067 79.1092 90.92C80.0826 92.1333 80.5692 93.8933 80.5692 96.2C80.5692 98.5067 80.0826 100.267 79.1092 101.48ZM74.8892 100.7C76.6226 100.7 77.4892 99.2 77.4892 96.2C77.4892 93.2 76.6226 91.7 74.8892 91.7C73.1559 91.7 72.2892 93.2 72.2892 96.2C72.2892 97.7333 72.5026 98.8667 72.9292 99.6C73.3559 100.333 74.0092 100.7 74.8892 100.7ZM92.1403 99.16C92.1403 100.293 91.767 101.24 91.0203 102C90.287 102.747 89.2736 103.187 87.9803 103.32V105H86.2003V103.3C84.7736 103.14 83.6803 102.64 82.9203 101.8C82.1603 100.947 81.7803 99.8267 81.7803 98.44H85.0203C85.0203 99.1867 85.207 99.7733 85.5803 100.2C85.967 100.627 86.4936 100.84 87.1603 100.84C87.7336 100.84 88.167 100.713 88.4603 100.46C88.767 100.193 88.9203 99.8267 88.9203 99.36C88.9203 99 88.807 98.6933 88.5803 98.44C88.3536 98.1733 87.9603 97.9467 87.4003 97.76L84.9403 97C84.0336 96.7067 83.3336 96.2333 82.8403 95.58C82.3603 94.9133 82.1203 94.1 82.1203 93.14C82.1203 92.0733 82.5003 91.18 83.2603 90.46C84.0336 89.7267 85.0136 89.2933 86.2003 89.16V87.4H87.9803V89.2C89.2736 89.3733 90.247 89.8467 90.9003 90.62C91.567 91.3933 91.9003 92.34 91.9003 93.46H88.6603C88.6603 92.82 88.507 92.3333 88.2003 92C87.8936 91.6533 87.4603 91.48 86.9003 91.48C86.4203 91.48 86.0403 91.6 85.7603 91.84C85.4936 92.08 85.3603 92.4067 85.3603 92.82C85.3603 93.2333 85.4803 93.58 85.7203 93.86C85.9736 94.14 86.4136 94.3933 87.0403 94.62L89.5003 95.42C91.2603 96.0067 92.1403 97.2533 92.1403 99.16Z" fill="white"/>
</svg>
