<svg width="11" height="20" viewBox="0 0 11 20" fill="none" xmlns="http://www.w3.org/2000/svg">
<path d="M8.7526 5.00016V14.5835C8.7526 16.4252 7.26094 17.9168 5.41927 17.9168C3.5776 17.9168 2.08594 16.4252 2.08594 14.5835V4.16683C2.08594 3.61429 2.30543 3.08439 2.69613 2.69369C3.08683 2.30299 3.61674 2.0835 4.16927 2.0835C4.72181 2.0835 5.25171 2.30299 5.64241 2.69369C6.03311 3.08439 6.2526 3.61429 6.2526 4.16683V12.9168C6.2526 13.3752 5.8776 13.7502 5.41927 13.7502C4.96094 13.7502 4.58594 13.3752 4.58594 12.9168V5.00016H3.33594V12.9168C3.33594 13.4694 3.55543 13.9993 3.94613 14.39C4.33683 14.7807 4.86674 15.0002 5.41927 15.0002C5.97181 15.0002 6.50171 14.7807 6.89241 14.39C7.28311 13.9993 7.5026 13.4694 7.5026 12.9168V4.16683C7.5026 2.32516 6.01094 0.833496 4.16927 0.833496C2.3276 0.833496 0.835938 2.32516 0.835938 4.16683V14.5835C0.835938 17.1168 2.88594 19.1668 5.41927 19.1668C7.9526 19.1668 10.0026 17.1168 10.0026 14.5835V5.00016H8.7526Z" fill="#353535"/>
</svg>
