<svg width="12" height="7" viewBox="0 0 12 7" fill="none" xmlns="http://www.w3.org/2000/svg">
<path d="M6.00003 6.33328C5.80532 6.33366 5.61662 6.26585 5.46669 6.14161L0.466693 1.97495C0.296512 1.8335 0.189492 1.63024 0.169176 1.40988C0.148859 1.18953 0.216911 0.970125 0.35836 0.799945C0.499808 0.629764 0.703068 0.522744 0.923423 0.502428C1.14378 0.482111 1.36318 0.550162 1.53336 0.691611L6.00003 4.42494L10.4667 0.824945C10.5519 0.755724 10.65 0.70403 10.7553 0.672837C10.8606 0.641644 10.971 0.631566 11.0802 0.643182C11.1894 0.654798 11.2952 0.687879 11.3916 0.740524C11.4879 0.793168 11.5729 0.864339 11.6417 0.949945C11.718 1.03563 11.7758 1.13615 11.8115 1.24521C11.8471 1.35427 11.8599 1.46952 11.8489 1.58374C11.838 1.69796 11.8036 1.80869 11.7478 1.90899C11.6921 2.00928 11.6162 2.09699 11.525 2.16661L6.52503 6.19161C6.37079 6.29621 6.18594 6.34609 6.00003 6.33328Z" fill="#353535"/>
</svg>
