<svg width="22" height="21" viewBox="0 0 22 21" fill="none" xmlns="http://www.w3.org/2000/svg">
<path fill-rule="evenodd" clip-rule="evenodd" d="M11.4337 21C9.45032 20.9949 7.5093 20.4258 5.83727 19.3589L0.914062 21L2.55519 16.0754C1.31879 14.1023 0.773218 11.7742 1.00447 9.45722C1.23571 7.14025 2.23067 4.96589 3.83265 3.27607C5.43463 1.58626 7.55271 0.476885 9.85405 0.122406C12.1554 -0.232073 14.5094 0.188435 16.5456 1.31785C18.5818 2.44727 20.1848 4.22144 21.1026 6.36143C22.0203 8.50141 22.2007 10.8858 21.6154 13.1395C21.03 15.3932 19.7122 17.3884 17.8691 18.8113C16.026 20.2342 13.7622 21.0042 11.4337 21ZM13.72 12.0737C14.4197 12.3 15.1315 12.4874 15.852 12.6348C15.9278 12.6459 16.0005 12.6722 16.0658 12.7122C16.1312 12.7521 16.1879 12.8048 16.2324 12.8671C16.277 12.9295 16.3085 13.0002 16.3251 13.075C16.3416 13.1498 16.3429 13.2271 16.3288 13.3024V13.7063C16.3358 13.8505 16.309 13.9944 16.2506 14.1263C16.1921 14.2583 16.1036 14.3748 15.9922 14.4666C15.6465 14.8175 15.2372 15.0993 14.786 15.297C14.1204 15.3761 13.4455 15.3173 12.8036 15.1243C12.1617 14.9312 11.5665 14.608 11.055 14.1748C10.3955 13.7324 9.78024 13.2275 9.21763 12.6671C8.65769 12.1016 8.15052 11.486 7.70269 10.8282C7.27296 10.3163 6.95296 9.7217 6.76236 9.08114C6.57176 8.44058 6.51474 7.76777 6.59474 7.10426C6.79269 6.6556 7.0734 6.24825 7.42224 5.90359C7.51111 5.7899 7.6268 5.7001 7.75902 5.64231C7.89125 5.58452 8.03591 5.56054 8.17971 5.57254H8.58635C8.73977 5.55134 8.89543 5.59186 9.01902 5.6852C9.1426 5.77854 9.22397 5.91716 9.24554 6.07053C9.45593 6.90088 9.61027 7.5012 9.82066 8.17446C9.90482 8.45498 9.80675 8.52228 9.58233 8.69059C9.44206 8.79859 9.32984 8.87716 9.21763 8.95992C9.15255 8.98824 9.09417 9.02991 9.04624 9.08225C8.99832 9.1346 8.96189 9.19643 8.9394 9.26375C8.91692 9.33107 8.90875 9.40242 8.9156 9.47306C8.92245 9.5437 8.94413 9.61207 8.97912 9.67381C9.33733 10.3632 9.79579 10.9957 10.3396 11.5505C10.8937 12.0954 11.5276 12.5527 12.2193 12.9068C12.2812 12.9412 12.3494 12.9625 12.4199 12.9691C12.4904 12.9757 12.5616 12.9676 12.6288 12.9453C12.696 12.923 12.758 12.8871 12.8106 12.8396C12.8633 12.7922 12.9053 12.7344 12.9344 12.6698C13.0186 12.5562 13.0888 12.4496 13.201 12.3037C13.2185 12.2533 13.246 12.2069 13.2818 12.1673C13.3177 12.1278 13.3611 12.0959 13.4096 12.0735C13.458 12.0511 13.5105 12.0387 13.5638 12.0371C13.6172 12.0354 13.6702 12.0446 13.72 12.0639V12.0737Z" fill="#353535"/>
</svg>
